<?xml version="1.0" standalone="no"?>
<!DOCTYPE svg PUBLIC "-//W3C//DTD SVG 1.1//EN" "http://www.w3.org/Graphics/SVG/1.1/DTD/svg11.dtd">
<svg width="324" height="324" version="1.1" xmlns="http://www.w3.org/2000/svg">
  <title>20 cells diameter theta maze</title>
  <desc>20 cells diameter theta maze generated by The Maze Generator Website (http://www.mazegenerator.net/).</desc>
  <g fill="none" stroke="#000000" stroke-width="2" stroke-linecap="square">
    <path d="M 140.37258300203047,185.62741699796953 A 32,32 0 1,1 163,195" />
    <path d="M 181.3688047535243,118.65378243945824 A 48,48 0 0,1 207.34621756054176,144.6311952464757" />
    <path d="M 207.34621756054176,181.3688047535243 A 48,48 0 0,1 181.3688047535243,207.34621756054176" />
    <path d="M 163,211 A 48,48 0 0,1 115,163" />
    <path d="M 129.05887450304573,129.05887450304573 A 48,48 0 0,1 144.63119524647567,118.65378243945824" />
    <path d="M 208.25483399593904,208.25483399593904 A 64,64 0 0,1 138.50826032863427,222.12829008072237" />
    <path d="M 117.74516600406096,208.25483399593907 A 64,64 0 0,1 103.87170991927766,187.49173967136579" />
    <path d="M 103.87170991927766,138.50826032863424 A 64,64 0 0,1 138.50826032863421,103.87170991927766" />
    <path d="M 84.537177567741566,147.39277423870973 A 80,80 0 0,1 207.44561864156816,96.482431015796379" />
    <path d="M 229.51756898420362,118.55438135843181 A 80,80 0 0,1 241.46282243225843,178.60722576129027" />
    <path d="M 229.51756898420365,207.44561864156816 A 80,80 0 0,1 219.5685424949238,219.5685424949238" />
    <path d="M 193.6146745892072,236.91036260090294 A 80,80 0 0,1 178.60722576129029,241.46282243225843" />
    <path d="M 147.39277423870973,241.46282243225843 A 80,80 0 0,1 106.43145750507621,219.5685424949238" />
    <path d="M 96.482431015796379,207.44561864156816 A 80,80 0 0,1 83,163.00000000000003" />
    <path d="M 163,67 A 96,96 0 0,1 181.72867091354831,68.844613081289879" />
    <path d="M 199.7376095070486,74.307564878916466 A 96,96 0 0,1 230.88225099390854,95.117749006091429" />
    <path d="M 242.82108278104434,109.66525763011819 A 96,96 0 0,1 251.69243512108352,126.26239049295137" />
    <path d="M 257.15538691871012,144.27132908645169 A 96,96 0 0,1 251.69243512108352,199.7376095070486" />
    <path d="M 216.33474236988181,242.82108278104437 A 96,96 0 0,1 95.117749006091444,230.88225099390857" />
    <path d="M 74.30756487891648,126.26239049295137 A 96,96 0 0,1 83.178917218955633,109.66525763011822" />
    <path d="M 95.117749006091429,95.117749006091458 A 96,96 0 0,1 126.26239049295131,74.3075648789165" />
    <path d="M 184.85011606580636,53.152048594838192 A 112,112 0 0,1 242.19595949289334,83.804040507106677" />
    <path d="M 256.12459657788509,100.77613390180454 A 112,112 0 0,1 266.4745076412641,120.13945557510994" />
    <path d="M 272.84795140516178,184.85011606580636 A 112,112 0 0,1 256.12459657788509,225.22386609819543" />
    <path d="M 242.19595949289334,242.19595949289331 A 112,112 0 0,1 205.86054442489007,266.4745076412641" />
    <path d="M 141.14988393419361,272.84795140516178 A 112,112 0 0,1 120.13945557510996,266.47450764126415" />
    <path d="M 83.804040507106691,242.19595949289334 A 112,112 0 0,1 69.875403422114928,225.22386609819546" />
    <path d="M 53.152048594838192,184.85011606580642 A 112,112 0 0,1 51,163.00000000000003" />
    <path d="M 59.525492358735889,120.13945557510992 A 112,112 0 0,1 83.804040507106663,83.804040507106691" />
    <path d="M 120.13945557510988,59.525492358735917 A 112,112 0 0,1 141.14988393419358,53.152048594838206" />
    <path d="M 56.571889625274181,91.887010173490964 A 128,128 0 0,1 187.97156121806441,37.459484108386505" />
    <path d="M 234.11298982650908,56.57188962527421 A 128,128 0 0,1 253.50966799187808,72.490332008121911" />
    <path d="M 269.4281103747258,91.8870101734909 A 128,128 0 0,1 281.25658016144473,114.0165206572685" />
    <path d="M 288.5405158916135,138.02843878193556 A 128,128 0 0,1 281.25658016144473,211.98347934273147" />
    <path d="M 253.50966799187808,253.50966799187808 A 128,128 0 0,1 187.97156121806447,288.5405158916135" />
    <path d="M 138.02843878193556,288.5405158916135 A 128,128 0 0,1 72.490332008121925,253.5096679918781" />
    <path d="M 44.743419838555326,211.98347934273156 A 128,128 0 0,1 37.459484108386519,187.97156121806447" />
    <path d="M 37.459484108386505,138.02843878193556 A 128,128 0 0,1 44.743419838555312,114.01652065726847" />
    <path d="M 163,19 A 144,144 0 0,1 191.09300637032249,21.766919621934818" />
    <path d="M 204.80099352464259,25.200591654561919 A 144,144 0 0,1 243.0021135548227,43.268375828433477" />
    <path d="M 254.35263291956494,51.686494715765875 A 144,144 0 0,1 264.82337649086287,61.176623509137158" />
    <path d="M 274.31350528423411,71.647367080435046 A 144,144 0 0,1 289.99666206616314,95.118869897056314" />
    <path d="M 296.03865268162531,107.89358573942707 A 144,144 0 0,1 304.23308037806521,134.90699362967752" />
    <path d="M 306.30660064079632,148.88553179254325 A 144,144 0 0,1 306.30660064079632,177.11446820745672" />
    <path d="M 304.23308037806521,191.09300637032246 A 144,144 0 0,1 282.73162417156652,243.0021135548227" />
    <path d="M 254.35263291956494,274.31350528423411 A 144,144 0 0,1 204.80099352464259,300.79940834543811" />
    <path d="M 177.11446820745675,306.30660064079632 A 144,144 0 0,1 121.19900647535745,300.79940834543811" />
    <path d="M 107.8935857394271,296.03865268162531 A 144,144 0 0,1 61.176623509137173,264.82337649086287" />
    <path d="M 51.686494715765917,254.352632919565 A 144,144 0 0,1 43.268375828433477,243.0021135548227" />
    <path d="M 29.961347318374749,218.10641426057302 A 144,144 0 0,1 25.200591654561919,204.80099352464259" />
    <path d="M 21.766919621934818,191.09300637032254 A 144,144 0 0,1 19.693399359203653,148.88553179254336" />
    <path d="M 25.200591654561919,121.19900647535746 A 144,144 0 0,1 61.17662350913713,61.176623509137173" />
    <path d="M 71.647367080434989,51.686494715765932 A 144,144 0 0,1 82.997886445177286,43.268375828433491" />
    <path d="M 107.89358573942698,29.961347318374749 A 144,144 0 0,1 121.19900647535741,25.200591654561919" />
    <path d="M 134.90699362967746,21.766919621934818 A 144,144 0 0,1 148.88553179254328,19.693399359203653" />
    <path d="M 178.68274245272968,3.7704437324484843 A 160,160 0 1,1 163,3" />
  </g>
  <g fill="none" stroke="#000000" stroke-width="2" stroke-linecap="butt">
    <line x1="163" y1="19" x2="163" y2="35" />
    <line x1="163" y1="51" x2="163" y2="67" />
    <line x1="163" y1="83" x2="163" y2="99" />
    <line x1="163" y1="115" x2="163" y2="131" />
    <line x1="178.68274245272968" y1="3.7704437324484843" x2="177.11446820745672" y2="19.693399359203653" />
    <line x1="187.97156121806441" y1="37.459484108386505" x2="184.85011606580636" y2="53.152048594838192" />
    <line x1="181.72867091354831" y1="68.844613081289879" x2="178.60722576129027" y2="84.537177567741566" />
    <line x1="218.10641426057293" y1="29.96134731837472" x2="211.9834793427315" y2="44.7434198385553" />
    <line x1="193.6146745892072" y1="89.089637399097057" x2="181.3688047535243" y2="118.65378243945824" />
    <line x1="251.89123728313635" y1="29.964862031592759" x2="234.11298982650908" y2="56.57188962527421" />
    <line x1="216.33474236988181" y1="83.178917218955661" x2="207.44561864156816" y2="96.482431015796379" />
    <line x1="264.50292546618329" y1="39.318327461962085" x2="254.35263291956494" y2="51.686494715765875" />
    <line x1="242.19595949289331" y1="83.804040507106677" x2="208.25483399593904" y2="117.74516600406096" />
    <line x1="286.6816725380379" y1="61.497074533816715" x2="274.31350528423411" y2="71.647367080435046" />
    <line x1="296.03865268162531" y1="107.89358573942707" x2="251.69243512108352" y2="126.26239049295137" />
    <line x1="236.91036260090294" y1="132.3853254107928" x2="222.12829008072237" y2="138.50826032863427" />
    <line x1="304.23308037806521" y1="134.90699362967752" x2="272.84795140516178" y2="141.14988393419364" />
    <line x1="322.22955626755152" y1="147.31725754727029" x2="306.30660064079632" y2="148.88553179254325" />
    <line x1="291" y1="163" x2="275" y2="163" />
    <line x1="243" y1="163" x2="211" y2="163" />
    <line x1="319.92564486451687" y1="194.2144515225805" x2="241.46282243225843" y2="178.60722576129027" />
    <line x1="251.69243512108352" y1="199.7376095070486" x2="207.34621756054176" y2="181.3688047535243" />
    <line x1="282.73162417156652" y1="243.0021135548227" x2="269.4281103747258" y2="234.11298982650905" />
    <line x1="256.12459657788509" y1="225.2238660981954" x2="229.51756898420365" y2="207.44561864156816" />
    <line x1="286.6816725380379" y1="264.50292546618323" x2="274.31350528423411" y2="254.35263291956494" />
    <line x1="276.13708498984761" y1="276.13708498984761" x2="264.82337649086287" y2="264.82337649086287" />
    <line x1="242.19595949289334" y1="242.19595949289331" x2="230.88225099390857" y2="230.88225099390854" />
    <line x1="216.33474236988181" y1="242.82108278104437" x2="207.44561864156816" y2="229.51756898420362" />
    <line x1="224.2293491784144" y1="310.82072520180589" x2="218.10641426057293" y2="296.03865268162531" />
    <line x1="211.9834793427315" y1="281.25658016144473" x2="205.86054442489007" y2="266.4745076412641" />
    <line x1="199.73760950704863" y1="251.69243512108352" x2="193.6146745892072" y2="236.91036260090294" />
    <line x1="194.21445152258059" y1="319.92564486451687" x2="184.85011606580639" y2="272.84795140516178" />
    <line x1="163.00000000000003" y1="323" x2="163" y2="243" />
    <line x1="163" y1="211" x2="163" y2="195" />
    <line x1="134.90699362967752" y1="304.23308037806521" x2="141.14988393419361" y2="272.84795140516178" />
    <line x1="107.8935857394271" y1="296.03865268162531" x2="114.01652065726853" y2="281.25658016144473" />
    <line x1="132.38532541079283" y1="236.91036260090294" x2="138.50826032863427" y2="222.12829008072237" />
    <line x1="91.88701017349095" y1="269.4281103747258" x2="100.77613390180459" y2="256.12459657788509" />
    <line x1="109.66525763011822" y1="242.82108278104437" x2="118.55438135843184" y2="229.51756898420365" />
    <line x1="72.490332008121925" y1="253.5096679918781" x2="83.804040507106691" y2="242.19595949289334" />
    <line x1="117.74516600406096" y1="208.25483399593907" x2="129.05887450304573" y2="196.94112549695427" />
    <line x1="29.964862031592759" y1="251.89123728313635" x2="56.57188962527421" y2="234.11298982650908" />
    <line x1="69.875403422114928" y1="225.22386609819546" x2="96.482431015796379" y2="207.44561864156816" />
    <line x1="21.89259770426321" y1="238.42347789215967" x2="36.003337933836889" y2="230.8811301029437" />
    <line x1="15.179274798194172" y1="224.22934917841445" x2="74.3075648789165" y2="199.73760950704866" />
    <line x1="89.089637399097086" y1="193.61467458920723" x2="103.87170991927766" y2="187.49173967136579" />
    <line x1="6.0743551354831595" y1="194.21445152258059" x2="21.766919621934846" y2="191.09300637032254" />
    <line x1="37.459484108386519" y1="187.97156121806447" x2="68.844613081289893" y2="181.72867091354834" />
    <line x1="19" y1="163.00000000000003" x2="35" y2="163.00000000000003" />
    <line x1="51" y1="163.00000000000003" x2="67" y2="163.00000000000003" />
    <line x1="83" y1="163.00000000000003" x2="99" y2="163" />
    <line x1="21.766919621934818" y1="134.90699362967752" x2="68.844613081289879" y2="144.27132908645169" />
    <line x1="29.96134731837472" y1="107.89358573942704" x2="44.743419838555312" y2="114.01652065726847" />
    <line x1="59.5254923587359" y1="120.13945557510992" x2="74.30756487891648" y2="126.26239049295137" />
    <line x1="103.87170991927766" y1="138.50826032863424" x2="118.65378243945824" y2="144.63119524647567" />
    <line x1="61.17662350913713" y1="61.176623509137187" x2="83.804040507106663" y2="83.804040507106691" />
    <line x1="117.74516600406095" y1="117.74516600406096" x2="129.05887450304573" y2="129.05887450304573" />
    <line x1="61.497074533816658" y1="39.318327461962127" x2="71.647367080434989" y2="51.686494715765917" />
    <line x1="91.887010173490921" y1="56.57188962527421" x2="100.77613390180456" y2="69.875403422114928" />
    <line x1="87.576522107840333" y1="21.892597704263238" x2="95.1188698970563" y2="36.0033379338369" />
    <line x1="120.13945557510988" y1="59.5254923587359" x2="126.26239049295133" y2="74.3075648789165" />
    <line x1="132.38532541079277" y1="89.089637399097086" x2="138.50826032863421" y2="103.87170991927766" />
    <line x1="116.554451639286" y1="9.8895462828465952" x2="121.19900647535741" y2="25.200591654561919" />
    <line x1="138.02843878193554" y1="37.459484108386519" x2="144.27132908645166" y2="68.844613081289893" />
    <line x1="147.31725754727032" y1="3.7704437324484843" x2="148.88553179254328" y2="19.693399359203653" />
  </g>
</svg>
